<svg xmlns="http://www.w3.org/2000/svg" width="243" height="42" viewBox="83 183 2277 394" role="img" aria-labelledby="title desc">
  <title id="title">Casa Atenta</title>
  <desc id="desc">Logotipo de Casa Atenta</desc>
  <g fill="none" stroke="#fff" stroke-linecap="round" stroke-linejoin="round">
    <g>
      <circle cx="280" cy="380" r="165" stroke-width="24"/>
      <circle cx="280" cy="380" r="120" stroke-width="7"/>
      <path d="M221 362l59-33 59 33" stroke-width="15"/>
      <path d="M280 395v52" stroke-width="15"/>
    </g>
    <g stroke-width="7.5">
      <path d="M704.4 318.9c-53.1 0-88.5 35.4-88.5 76.7s35.4 76.7 88.5 76.7"/>
      <path d="m776 472.3 50.74-153.4 50.74 153.4"/>
      <path d="M1042.3 334.24c-27.14-18.88-79.06-17.7-84.96 23.6-5.9 37.76 84.96 25.96 81.42 71.98-3.54 47.2-60.18 49.56-90.86 24.78"/>
      <path d="m1113.9 472.3 50.74-153.4 50.74 153.4"/>
      <path d="m1380.8 472.3 50.74-153.4 50.74 153.4"/>
      <path d="M1546.8 318.9h112.1m-56.05 0v153.4"/>
      <path d="M1815.46 318.9h-90.86v153.4h93.22m-93.22-76.7h76.7"/>
      <path d="M1890.6 472.3V318.9l100.3 153.4V318.9"/>
      <path d="M2056.6 318.9h112.1m-56.05 0v153.4"/>
      <path d="m2234.4 472.3 50.74-153.4 50.74 153.4"/>
    </g>
  </g>
</svg>
